<mxfile host="app.diagrams.net" agent="Mozilla/5.0 (Macintosh; Intel Mac OS X 10_15_7) AppleWebKit/537.36 (KHTML, like Gecko) Chrome/139.0.0.0 Safari/537.36" version="28.2.0">
  <diagram id="C5RBs43oDa-KdzZeNtuy" name="Page-1">
    <mxGraphModel grid="0" page="0" gridSize="10" guides="1" tooltips="1" connect="1" arrows="1" fold="1" pageScale="1" pageWidth="827" pageHeight="1169" background="none" math="0" shadow="0">
      <root>
        <mxCell id="WIyWlLk6GJQsqaUBKTNV-0" />
        <mxCell id="WIyWlLk6GJQsqaUBKTNV-1" parent="WIyWlLk6GJQsqaUBKTNV-0" />
        <mxCell id="plBswhhmwN3_OShpNRQr-8" value="Weight=input()" style="rounded=0;whiteSpace=wrap;html=1;" vertex="1" parent="WIyWlLk6GJQsqaUBKTNV-1">
          <mxGeometry x="80" y="80" width="100" height="40" as="geometry" />
        </mxCell>
        <mxCell id="plBswhhmwN3_OShpNRQr-9" value="Weight?" style="rounded=0;whiteSpace=wrap;html=1;" vertex="1" parent="WIyWlLk6GJQsqaUBKTNV-1">
          <mxGeometry x="-50" y="80" width="90" height="40" as="geometry" />
        </mxCell>
        <mxCell id="plBswhhmwN3_OShpNRQr-10" value="" style="endArrow=classic;html=1;rounded=0;exitX=1;exitY=0.5;exitDx=0;exitDy=0;fontStyle=1" edge="1" parent="WIyWlLk6GJQsqaUBKTNV-1" source="plBswhhmwN3_OShpNRQr-9">
          <mxGeometry width="50" height="50" relative="1" as="geometry">
            <mxPoint x="390" y="240" as="sourcePoint" />
            <mxPoint x="80" y="100" as="targetPoint" />
          </mxGeometry>
        </mxCell>
        <mxCell id="plBswhhmwN3_OShpNRQr-11" value="initial_motoer?" style="rounded=0;whiteSpace=wrap;html=1;" vertex="1" parent="WIyWlLk6GJQsqaUBKTNV-1">
          <mxGeometry x="220" y="80" width="100" height="40" as="geometry" />
        </mxCell>
        <mxCell id="plBswhhmwN3_OShpNRQr-12" value="" style="endArrow=classic;html=1;rounded=0;exitX=1;exitY=0.5;exitDx=0;exitDy=0;" edge="1" parent="WIyWlLk6GJQsqaUBKTNV-1">
          <mxGeometry width="50" height="50" relative="1" as="geometry">
            <mxPoint x="180" y="99.5" as="sourcePoint" />
            <mxPoint x="220" y="99.5" as="targetPoint" />
          </mxGeometry>
        </mxCell>
        <mxCell id="plBswhhmwN3_OShpNRQr-14" value="antal_motoer=input()" style="rounded=0;whiteSpace=wrap;html=1;" vertex="1" parent="WIyWlLk6GJQsqaUBKTNV-1">
          <mxGeometry x="350" y="80" width="123.5" height="40" as="geometry" />
        </mxCell>
        <mxCell id="plBswhhmwN3_OShpNRQr-15" value="Weight/antal_motoere&amp;gt;5.6?" style="rhombus;whiteSpace=wrap;html=1;" vertex="1" parent="WIyWlLk6GJQsqaUBKTNV-1">
          <mxGeometry x="510" y="60" width="170" height="80" as="geometry" />
        </mxCell>
        <mxCell id="plBswhhmwN3_OShpNRQr-17" value="output(&quot;nej&quot;);" style="rounded=0;whiteSpace=wrap;html=1;" vertex="1" parent="WIyWlLk6GJQsqaUBKTNV-1">
          <mxGeometry x="751" y="40" width="100" height="40" as="geometry" />
        </mxCell>
        <mxCell id="plBswhhmwN3_OShpNRQr-18" value="output(&quot;ja&quot;);" style="rounded=0;whiteSpace=wrap;html=1;" vertex="1" parent="WIyWlLk6GJQsqaUBKTNV-1">
          <mxGeometry x="751" y="120" width="100" height="40" as="geometry" />
        </mxCell>
        <mxCell id="plBswhhmwN3_OShpNRQr-19" value="" style="endArrow=classic;html=1;rounded=0;" edge="1" parent="WIyWlLk6GJQsqaUBKTNV-1">
          <mxGeometry width="50" height="50" relative="1" as="geometry">
            <mxPoint x="660" y="90" as="sourcePoint" />
            <mxPoint x="750" y="60" as="targetPoint" />
          </mxGeometry>
        </mxCell>
        <mxCell id="plBswhhmwN3_OShpNRQr-20" value="" style="endArrow=classic;html=1;rounded=0;exitX=0.853;exitY=0.65;exitDx=0;exitDy=0;exitPerimeter=0;" edge="1" parent="WIyWlLk6GJQsqaUBKTNV-1" source="plBswhhmwN3_OShpNRQr-15">
          <mxGeometry width="50" height="50" relative="1" as="geometry">
            <mxPoint x="660" y="120" as="sourcePoint" />
            <mxPoint x="750" y="140" as="targetPoint" />
          </mxGeometry>
        </mxCell>
        <mxCell id="plBswhhmwN3_OShpNRQr-21" value="true" style="text;html=1;align=center;verticalAlign=middle;whiteSpace=wrap;rounded=0;" vertex="1" parent="WIyWlLk6GJQsqaUBKTNV-1">
          <mxGeometry x="660" y="120" width="60" height="30" as="geometry" />
        </mxCell>
        <mxCell id="plBswhhmwN3_OShpNRQr-22" value="false" style="text;html=1;align=center;verticalAlign=middle;whiteSpace=wrap;rounded=0;" vertex="1" parent="WIyWlLk6GJQsqaUBKTNV-1">
          <mxGeometry x="660" y="50" width="60" height="30" as="geometry" />
        </mxCell>
        <mxCell id="plBswhhmwN3_OShpNRQr-23" value="End" style="ellipse;whiteSpace=wrap;html=1;" vertex="1" parent="WIyWlLk6GJQsqaUBKTNV-1">
          <mxGeometry x="890" y="60" width="120" height="80" as="geometry" />
        </mxCell>
        <mxCell id="plBswhhmwN3_OShpNRQr-24" value="" style="endArrow=classic;html=1;rounded=0;exitX=1;exitY=0.5;exitDx=0;exitDy=0;entryX=0;entryY=0.5;entryDx=0;entryDy=0;" edge="1" parent="WIyWlLk6GJQsqaUBKTNV-1" source="plBswhhmwN3_OShpNRQr-11" target="plBswhhmwN3_OShpNRQr-14">
          <mxGeometry width="50" height="50" relative="1" as="geometry">
            <mxPoint x="630" y="340" as="sourcePoint" />
            <mxPoint x="680" y="290" as="targetPoint" />
          </mxGeometry>
        </mxCell>
        <mxCell id="plBswhhmwN3_OShpNRQr-25" value="" style="endArrow=classic;html=1;rounded=0;exitX=1;exitY=0.5;exitDx=0;exitDy=0;" edge="1" parent="WIyWlLk6GJQsqaUBKTNV-1" source="plBswhhmwN3_OShpNRQr-14" target="plBswhhmwN3_OShpNRQr-15">
          <mxGeometry width="50" height="50" relative="1" as="geometry">
            <mxPoint x="630" y="340" as="sourcePoint" />
            <mxPoint x="680" y="290" as="targetPoint" />
          </mxGeometry>
        </mxCell>
        <mxCell id="plBswhhmwN3_OShpNRQr-26" value="" style="endArrow=classic;html=1;rounded=0;" edge="1" parent="WIyWlLk6GJQsqaUBKTNV-1" target="plBswhhmwN3_OShpNRQr-23">
          <mxGeometry width="50" height="50" relative="1" as="geometry">
            <mxPoint x="851" y="140" as="sourcePoint" />
            <mxPoint x="901" y="90" as="targetPoint" />
          </mxGeometry>
        </mxCell>
        <mxCell id="plBswhhmwN3_OShpNRQr-27" value="" style="endArrow=classic;html=1;rounded=0;" edge="1" parent="WIyWlLk6GJQsqaUBKTNV-1">
          <mxGeometry width="50" height="50" relative="1" as="geometry">
            <mxPoint x="851" y="60" as="sourcePoint" />
            <mxPoint x="890" y="78" as="targetPoint" />
          </mxGeometry>
        </mxCell>
      </root>
    </mxGraphModel>
  </diagram>
</mxfile>
